<svg xmlns="http://www.w3.org/2000/svg" xmlns:svg="http://www.w3.org/2000/svg" width="180.98px" height="153.168px" viewBox="0 0 180.97964 153.16821" version="1.1" id="svg1" xml:space="preserve"><defs id="defs1"/><g id="layer1" transform="translate(248.7132,134.38649)"><g id="g1"><path style="fill: rgb(254, 242, 107);" d="m -462.23645,-77.0673 h 26.45834 v 26.458332 h -26.45834 z m 47.625,0 h 26.19375 v 26.458332 h -26.19375 z m 31.48542,13.231666 V -77.0673 h 14.46903 c 16.069,0 16.23455,-0.0147 19.82758,-1.760323 6.13392,-2.980081 10.00244,-9.02022 9.97203,-15.569884 -0.0228,-4.918099 -2.16424,-9.686093 -5.95176,-13.252073 -2.5463,-2.39735 -5.35345,-4.00231 -8.0984,-4.63017 -0.81969,-0.18749 -6.2075,-0.27374 -15.73255,-0.25185 l -14.48593,0.0333 v -13.38688 -13.38687 l 15.27968,0.0886 c 14.74673,0.0855 15.38121,0.1098 18.19011,0.69758 19.25415,4.02906 32.70907,17.3115 36.17008,35.70638 0.77223,4.104308 0.82033,11.552314 0.10027,15.525778 -3.11737,17.202278 -15.54149,30.849036 -31.92568,35.067416 -5.2619,1.354762 -5.53536,1.373053 -22.1379,1.480739 l -15.67656,0.10168 z" id="path3"/><path style="fill: rgb(75, 8, 1);" d="m -328.551,13.167449 c -2.3619,-0.850078 -3.91622,-2.241309 -4.84129,-4.3333049 -0.311,-0.703318 -0.50671,-1.337508 -0.43491,-1.409311 0.12325,-0.123253 3.82135,-1.134154 4.18446,-1.143853 0.0934,-0.0025 0.24113,0.279857 0.32837,0.627445 0.0872,0.347589 0.57484,0.997422 1.08354,1.444075 2.58762,2.2719579 6.81024,1.431405 7.19423,-1.432079 0.22777,-1.698482 -0.73263,-2.461135 -4.8106,-3.820128 -4.08566,-1.361551 -5.58403,-2.30983105 -6.47821,-4.09988805 -0.95439,-1.91058995 -0.93026,-4.30630595 0.0603,-5.99138495 1.28143,-2.179805 2.99103,-3.2471411 5.82103,-3.6341681 3.02122,-0.413177 5.94284,0.399748 7.83339,2.1795961 0.82063,0.772585 1.89504,2.489903 1.89504,3.029009 0,0.128888 -0.90902,0.49847 -2.02005,0.821293 l -2.02005,0.58695 -0.78189,-0.948562 c -1.01308,-1.22905 -2.01683,-1.731275 -3.46012,-1.731275 -2.15339,0 -3.78894,1.715349 -3.2087,3.365252 0.34376,0.977473 1.67677,1.819548 3.92436,2.47905295 2.87605,0.84391200279 5.56754,2.22638905 6.47296,3.32481605 2.27913,2.764986 1.44734,7.7445969 -1.63826,9.8076059 -0.7015,0.469024 -1.71329,0.974375 -2.24842,1.123004 -1.61515,0.4486 -5.29453,0.31756 -6.85521,-0.244145 z m -133.68585,-11.7196489 4e-4,-11.8401031 h 4.04184 c 7.55112,0 10.40735,0.7382331 13.24702,3.4238751 2.55264,2.414183 3.78968,5.753961 3.53384,9.540707 -0.30939,4.579255 -2.89968,8.2049009 -7.024,9.8315489 -1.34522,0.53056 -2.11402,0.604646 -7.64754,0.736967 l -6.15197,0.147109 z m 12.31001,6.666282 c 2.42579,-1.250125 3.6516,-3.560481 3.64579,-6.871401 -0.005,-2.863389 -1.32855,-5.191355 -3.65227,-6.424034 -0.86941,-0.461198 -1.63693,-0.579809 -4.29948,-0.664433 l -3.24115,-0.103014 v 7.457698 7.457698 l 3.11778,-0.0883 c 2.72288,-0.07712 3.28391,-0.173915 4.42933,-0.76421 z m 110.32366,5.0234049 -1.61084,-4.5455319 -10.02972,0.05556 -1.75781,4.5080939 -4.85754,-0.463021 8.8313,-22.952603 h 5.38589 l 8.88996,23.351142 z m -3.30303,-8.9115619 -3.47404,-8.856628 -3.28552,8.592045 z m -94.85628,-14.4859371 14.94896,-0.14054 v 4.5061571 h -10.34003 l 0.0832,5.29166695 h 9.19855 V 3.6306051 h -9.2194 l 0.024,5.291666 h 10.78282 v 4.2333329 h -15.61592 z m 27.91354,-0.152893 4.63021,0.1529 0.1378,23.345959 -4.76796,0.09647 z m 10.05417,11.7858951 V -10.45228 l 5.4901,0.122991 c 5.92556,0.132746 7.44958,0.4197451 9.92151,1.8683921 1.42007,0.832218 3.4087,2.931116 4.1455,4.375372 0.90668,1.777231 1.41812,4.43886195 1.25093,6.510064 -0.38271,4.741183 -2.91397,8.3595859 -6.97501,9.9706829 -1.40836,0.558722 -2.01865,0.614733 -7.68147,0.704983 l -6.15156,0.09804 z m 12.30312,6.836263 c 2.43828,-1.293448 3.68973,-3.589684 3.65885,-6.7135 -0.023,-2.33069105 -0.59987,-3.893578 -1.9268,-5.220509 -1.60754,-1.607537 -2.71212,-1.98698 -6.16382,-2.117389 l -3.10885,-0.117456 v 7.468151 7.46815 l 3.24114,-0.103014 c 2.66256,-0.08462 3.43008,-0.203235 4.29948,-0.664433 z m 12.03854,-6.827591 V -10.392303 h 14.81667 v 4.4979161 h -10.05417 v 5.29166695 h 8.99584 V 3.6306131 h -8.99584 v 5.291666 h 10.58334 v 4.2333329 h -15.34584 z m -86.65108,-41.4577691 4.49791,-3.31e-4 0.1442,9.575811 h 11.35321 l 0.1442,-9.657292 4.63021,-0.1529 v 24.097683 h -4.7625 v -10.054166 h -11.37709 v 10.054166 h -4.76789 z m 33.15158,-0.08181 h 5.47671 l 9.38099,23.614062 -4.9235,0.330729 -1.9533,-4.7625 -10.24209,0.02167 -1.96505,4.740828 h -5.23736 z m 2.83473,5.742735 -3.84649,9.206223 h 7.64698 z m 14.87988,-5.662625 c 0.10914,-0.04588 2.75828,-0.02314 5.88698,0.05053 5.67887,0.133715 5.69091,0.135255 7.08217,0.906081 2.28573,1.266408 3.73721,4.007548 3.38075,6.384582 -0.18115,1.20804 -1.59422,3.675084 -1.97146,3.441937 -0.12866,-0.07952 -0.31077,0.05566 -0.40468,0.300398 -0.10195,0.26568 -0.0121,0.53374 0.2229,0.665273 1.88569,1.05529 3.05221,2.988465 3.06159,5.073724 0.0127,2.82412 -1.29076,4.88307 -3.90361,6.166133 -1.5049,0.738997 -1.55284,0.744289 -7.53381,0.831531 l -6.01927,0.0878 c 0.38857,-7.935944 -0.57996,-15.990513 0.19844,-23.907989 z m 10.91406,19.432499 c 1.13742,-0.568203 1.96852,-2.108282 1.7282,-3.202448 -0.0915,-0.416717 -0.52528,-1.101822 -0.96391,-1.522456 -0.77486,-0.743083 -0.88713,-0.767295 -3.95589,-0.853093 l -3.1584,-0.0883 v 6.129733 l 2.71198,-4.11e-4 c 2.05181,-3.11e-4 2.9374,-0.113024 3.63802,-0.463021 z m -0.23087,-10.274797 c 0.91852,-0.818465 1.3068,-2.008159 1.00827,-3.089342 -0.411,-1.488514 -1.27373,-1.87967 -4.41542,-2.001918 l -2.71198,-0.105528 v 5.950215 l 2.77533,-0.123432 c 2.24403,-0.0998 2.88415,-0.220405 3.3438,-0.629995 z m 11.07879,-9.066648 4.65345,-0.06093 0.10905,23.834549 h -4.7625 z m 14.81666,4.194461 h -6.61458 v -4.467198 l 18.02729,0.19932 0.0966,4.268372 -6.7655,-4.89e-4 0.151,19.57944 -4.8948,-2.74e-4 z m 9.86946,19.248437 9.16254,-23.551259 5.37226,0.201781 8.95639,23.084894 -4.70714,0.595313 -1.80714,-4.894792 h -10.30106 l -1.80715,4.894792 z m 12.09161,-17.859374 -3.9253,8.97694 7.31859,0.21733 z m 16.78541,17.849589 0.0149,-19.238877 -6.76828,2.25e-4 0.1537,-4.365625 17.85937,-0.13934 v 4.504955 h -6.61458 v 19.579166 l -4.64519,-0.340514 z m -92.54897,-24.596464 2.44501,-3.538984 5.34348,0.04777 -3.31659,3.821936 -4.4719,-0.330729 z m 120.47514,-9.657292 0.0708,-56.534984 26.65443,0.12687 v 56.606544 l -26.72527,-0.198437 z m -154.24973,-88.675474 26.45834,-0.004 v 26.96504 h 21.16666 l -2e-5,-26.8552 h 26.19374 l 3e-5,62.309367 h -26.18064 l -0.47613,-8.572499 -20.70364,0.105833 v 8.466666 h -13.22917 -13.22917 z m 79.11042,26.96141 25.92916,0.0335 v 35.420634 h -25.92916 z m 75.1268,-0.26459 0.15261,-26.45831 26.58517,-2e-5 v 26.79975 z" id="path2"/><path style="fill: rgb(247, 182, 57); stroke: none;" d="m -248.70849,-71.966907 h 26.45834 v 26.458332 h -26.45834 z m 47.625,0 h 26.19375 v 26.458332 h -26.19375 z m 31.48542,13.231666 v -13.231666 h 14.46903 c 16.069,0 16.23455,-0.0147 19.82758,-1.760323 6.13392,-2.980081 10.00244,-9.02022 9.97203,-15.569887 -0.0228,-4.9181 -2.16424,-9.68609 -5.95176,-13.252073 -2.5463,-2.39735 -5.35345,-4.00231 -8.0984,-4.63017 -0.81969,-0.18749 -6.2075,-0.27374 -15.73255,-0.25185 l -14.48593,0.0333 v -13.38688 -13.38687 l 15.27968,0.0886 c 14.74673,0.0855 15.38121,0.1098 18.19011,0.69758 19.25415,4.02906 32.70907,17.3115 36.170076,35.706383 0.77223,4.10431 0.82033,11.552314 0.10027,15.525778 -3.117366,17.202278 -15.541486,30.849036 -31.925676,35.067416 -5.2619,1.354762 -5.53536,1.373053 -22.1379,1.480739 l -15.67656,0.10168 z" id="path3-4"/><path style="opacity: 0.99; fill: rgb(247, 182, 57); fill-opacity: 1; stroke: none; stroke-width: 4.02521;" d="m -357.12645,-506.99261 100.72451,0.12396 0.20235,101.19245 -100.93172,-0.0248 z" id="path1" transform="scale(0.26458333)"/><path style="fill: rgb(233, 93, 0); stroke: none;" d="m -115.02304,18.267842 c -2.3619,-0.850078 -3.91622,-2.241309 -4.84129,-4.333305 -0.311,-0.703318 -0.50671,-1.337508 -0.43491,-1.409311 0.12325,-0.123253 3.82135,-1.134154 4.18446,-1.143853 0.0934,-0.0025 0.24113,0.279857 0.32837,0.627445 0.0872,0.347589 0.57484,0.997422 1.08354,1.444075 2.58762,2.271958 6.81024,1.431405 7.19423,-1.432079 0.22777,-1.698482 -0.73263,-2.4611346 -4.8106,-3.8201276 -4.08566,-1.361551 -5.58403,-2.309831 -6.47821,-4.099888 -0.95439,-1.91059 -0.93026,-4.30630609 0.0603,-5.9913851 1.28143,-2.179805 2.99103,-3.247141 5.82103,-3.634168 3.02122,-0.413177 5.94284,0.399748 7.83339,2.179596 0.82063,0.772585 1.89504,2.48990301 1.89504,3.02900901 0,0.128888 -0.90902,0.49847 -2.02005,0.821293 l -2.02005,0.58694999 -0.78189,-0.94856199 c -1.01308,-1.22905001 -2.01683,-1.73127501 -3.46012,-1.73127501 -2.15339,0 -3.78894,1.71534901 -3.2087,3.3652521 0.34376,0.977473 1.67677,1.819548 3.92436,2.4790529 2.87605,0.8439121 5.56754,2.2263891 6.47296,3.3248161 2.27913,2.7649856 1.44734,7.7445966 -1.63826,9.8076056 -0.7015,0.469024 -1.71329,0.974375 -2.24842,1.123004 -1.61515,0.4486 -5.29453,0.31756 -6.85521,-0.244145 z M -248.70849,-5.2919097 h 4.04184 c 7.55112,0 10.40735,0.738233 13.24702,3.423875 2.55264,2.41418301 3.78968,5.7539611 3.53384,9.5407071 -0.30939,4.5792546 -2.89968,8.2049006 -7.024,9.8315486 -1.34522,0.53056 -2.11402,0.604646 -7.64754,0.736967 l -6.15197,0.147109 z m 12.30961,18.5063847 c 2.42579,-1.250125 3.6516,-3.5604806 3.64579,-6.8714006 -0.005,-2.863389 -1.32855,-5.1913551 -3.65227,-6.42403409 -0.86941,-0.461198 -1.62089,-0.72571163 -4.28479,-0.72467023 l -3.32342,0.001299 0.0135,14.79027892 3.17181,-0.0073 c 2.72396,-0.0062 3.28391,-0.173915 4.42933,-0.76421 z m 110.32366,5.023405 -1.60146,-4.492388 -10.0391,0.0024 -1.75781,4.613634 -4.82236,-0.07604 8.79612,-23.4451227 h 5.38589 l 8.88996,23.3511417 z m -3.38881,-9.1575414 -3.38826,-8.61064829 -3.28759,8.60961509 z m -94.7705,-14.2399573 14.94162,-0.00842 0.007,4.37403971 h -10.34003 l 0.0832,5.29166709 9.19132,-0.00517 -0.002,4.2229977 -9.20803,-0.0031 -8.1e-4,5.2895982 10.27638,-0.0079 0.0143,4.333447 -14.93956,0.0019 z m 27.9219,0.00586 4.62185,-0.00586 -0.004,23.4847977 -4.62755,-0.0029 z m 10.04581,11.6271396 V -5.3518867 l 5.4901,0.122991 c 5.92556,0.132746 7.44958,0.419745 9.92151,1.868392 1.42007,0.832218 3.4087,2.93111601 4.1455,4.375372 0.90668,1.7772311 1.41812,4.438862 1.25093,6.5100641 -0.38271,4.7411826 -2.91397,8.3595856 -6.97501,9.9706826 -1.40836,0.558722 -2.01865,0.614733 -7.68147,0.704983 l -6.15156,0.09804 z m 12.30312,6.8362631 c 2.43828,-1.293448 3.68973,-3.5896841 3.65885,-6.7135001 -0.023,-2.3306911 -0.59987,-3.893578 -1.9268,-5.2205091 -1.60754,-1.60753699 -2.71212,-1.98697999 -6.16382,-2.11738899 l -3.10885,-0.117456 V 6.6089434 14.077093 l 3.24114,-0.103014 c 2.66256,-0.08462 3.43008,-0.203235 4.29948,-0.664433 z m 12.03854,-6.8275911 V -5.2919097 h 14.81667 v 4.49791601 h -10.05417 V 4.4976734 h 8.99584 v 4.233333 h -8.99584 v 5.2916656 h 10.03338 l 0.0157,4.311899 -14.81159,-0.07857 z m -86.68275,-41.4538109 4.60083,0.0036 -0.006,9.567895 h 11.44029 l -0.001,-9.573996 4.7923,-0.0051 -0.0243,23.86664 h -4.7625 l 0.008,-10.054166 -11.44043,-0.0079 v 10.050207 l -4.71247,0.01187 z m 33.18325,-0.08577 h 5.47671 l 9.44329,23.934487 -4.9858,0.0103 -1.9533,-4.7625 -10.24209,0.02167 -1.96505,4.740828 h -5.23736 z m 2.83473,5.742735 -3.84649,9.206223 h 7.64698 z m 14.7154,-5.658007 6.05782,0.0046 c 5.68044,0.0043 5.68455,0.176585 7.07581,0.947411 2.28573,1.266408 3.73721,4.007548 3.38075,6.384582 -0.18115,1.20804 -1.59422,3.675084 -1.97146,3.441937 -0.12866,-0.07952 -0.31077,0.05566 -0.40468,0.300398 -0.10195,0.26568 -0.0121,0.53374 0.2229,0.665273 1.88569,1.05529 3.05221,2.988465 3.06159,5.073724 0.0127,2.82412 -1.29076,4.88307 -3.90361,6.166133 -1.5049,0.738997 -1.538,0.857415 -7.5196,0.863499 l -6.00151,0.0061 z m 11.07854,19.427881 c 1.13742,-0.568203 1.96852,-2.108282 1.7282,-3.202448 -0.0915,-0.416717 -0.52528,-1.101822 -0.96391,-1.522456 -0.77486,-0.743083 -0.88713,-0.767295 -3.95589,-0.853093 l -3.1584,-0.0883 v 6.129733 l 2.71198,-4.11e-4 c 2.05181,-3.11e-4 2.9374,-0.113024 3.63802,-0.463021 z m -0.23087,-10.274797 c 0.91852,-0.818465 1.3068,-2.008159 1.00827,-3.089342 -0.411,-1.488514 -1.27373,-1.87967 -4.41542,-2.001918 l -2.71198,-0.105528 v 5.950215 l 2.77533,-0.123432 c 2.24403,-0.0998 2.88415,-0.220405 3.3438,-0.629995 z m 11.07419,-9.154072 4.76848,0.0035 -0.005,23.845205 h -4.76073 z m 14.82126,4.281885 h -6.61458 l 0.005,-4.281397 18.1511,-9.04e-4 -0.001,4.276594 -6.64011,0.0057 -0.005,19.57944 -4.8948,-2.74e-4 z m 9.77565,19.576771 9.18538,-23.859878 5.39986,0.0027 9.21865,23.858428 -4.92603,0.0012 -1.80714,-4.894792 h -10.30106 l -1.80715,4.894792 z m 12.18542,-18.187708 -3.86276,8.930035 7.24042,0.04535 z m 16.79308,-1.396523 -6.71692,0.003 0.008,-4.281774 17.94066,0.0047 -0.003,4.276114 -6.59891,-0.0018 -0.006,19.568831 -4.63546,0.0054 z m -92.55664,-5.350352 2.44501,-3.538984 5.33772,-0.0012 -2.93783,3.534328 -4.8449,0.0059 z m 120.454601,-65.892175 26.745765,-0.17323 -0.06691,56.545389 -26.690515,0.0043 c 0.0822,-18.880518 -0.01196,-37.490176 0.01169,-56.376489 z m -154.229191,-32.44059 26.45834,-0.004 v 26.96504 h 21.16666 l -2e-5,-26.8552 h 26.19374 l 3e-5,62.309366 h -26.18064 l 5.8e-4,-8.483115 -21.18035,0.01645 v 8.466666 h -26.45834 z m 79.11042,26.96141 25.92916,0.0335 v 35.420633 h -25.92916 z" id="path2-7"/></g></g></svg>